<svg xmlns="http://www.w3.org/2000/svg" width="400" height="600" viewBox="0 0 400 600">
  <rect width="400" height="600" fill="#ffffff"/>
  <!-- Crystal 1 -->
  <g stroke="#0000ff" stroke-width="2" fill="#0000ff" opacity="0.3">
    <polygon points="150,100 200,80 250,100 230,150 170,150"/>
    <polygon points="200,80 220,40 260,60 250,100"/>
    <polygon points="250,100 280,120 260,160 230,150"/>
  </g>
  <!-- Crystal 2 -->
  <g stroke="#ff0000" stroke-width="2" fill="#ff0000" opacity="0.3" transform="rotate(45 300 250)">
    <polygon points="280,230 320,210 360,230 340,270 300,270"/>
    <polygon points="320,210 340,170 380,190 360,230"/>
    <polygon points="360,230 390,250 370,290 340,270"/>
  </g>
  <!-- Crystal 3 -->
  <g stroke="#00ff00" stroke-width="2" fill="#00ff00" opacity="0.3" transform="rotate(-30 120 400)">
    <polygon points="100,380 140,360 180,380 160,420 120,420"/>
    <polygon points="140,360 160,320 200,340 180,380"/>
    <polygon points="180,380 210,400 190,440 160,420"/>
  </g>
  <!-- Reflection lines -->
  <g stroke="#000000" stroke-width="1" fill="none" opacity="0.2">
    <line x1="170" y1="120" x2="180" y2="130"/>
    <line x1="320" y1="240" x2="330" y2="250"/>
    <line x1="130" y1="390" x2="140" y2="400"/>
  </g>
</svg>