<svg xmlns="http://www.w3.org/2000/svg" width="400" height="600" viewBox="0 0 400 600">
  <rect width="400" height="600" fill="#ffffff"/>
  
  <!-- Flowing water-like shapes -->
  <path d="M0,0 Q100,80 200,60 T400,100 L400,200 Q300,160 200,180 T0,140 Z" fill="#0000ff" opacity="0.3"/>
  <path d="M0,180 Q120,240 240,200 T400,260 L400,360 Q280,320 160,340 T0,300 Z" fill="#0000ff" opacity="0.5"/>
  <path d="M0,340 Q80,400 200,380 T400,420 L400,520 Q320,480 200,500 T0,460 Z" fill="#0000ff" opacity="0.4"/>
  
  <!-- Organic droplet shapes -->
  <path d="M150,120 Q120,90 120,130 Q120,170 150,180 Q180,170 180,130 Q180,90 150,120 Z" fill="#0000ff" opacity="0.7"/>
  <path d="M280,280 Q250,250 250,290 Q250,330 280,340 Q310,330 310,290 Q310,250 280,280 Z" fill="#ffffff" opacity="0.9"/>
  <path d="M100,380 Q70,350 70,390 Q70,430 100,440 Q130,430 130,390 Q130,350 100,380 Z" fill="#0000ff" opacity="0.6"/>
  
  <!-- Curved flowing lines -->
  <path d="M0,50 Q100,30 200,70 Q300,110 400,90" stroke="#0000ff" stroke-width="3" fill="none" opacity="0.5"/>
  <path d="M0,220 Q100,200 200,240 Q300,280 400,260" stroke="#000000" stroke-width="1" fill="none" opacity="0.3"/>
  <path d="M0,400 Q100,380 200,420 Q300,460 400,440" stroke="#0000ff" stroke-width="2" fill="none" opacity="0.4"/>
  
  <!-- Soft circles -->
  <circle cx="320" cy="160" r="25" fill="#ffffff" opacity="0.8"/>
  <circle cx="80" cy="300" r="20" fill="#0000ff" opacity="0.4"/>
  <circle cx="350" cy="380" r="30" fill="#ffffff" opacity="0.7"/>
</svg>