<svg xmlns="http://www.w3.org/2000/svg" width="400" height="600" viewBox="0 0 400 600">
  <rect width="400" height="600" fill="#ffffff"/>
  
  <!-- Soft curved bands -->
  <path d="M0,100 Q100,50 200,100 Q300,150 400,100 L400,200 Q300,250 200,200 Q100,150 0,200 Z" fill="#ffff00" opacity="0.4"/>
  <path d="M0,250 Q100,200 200,250 Q300,300 400,250 L400,350 Q300,400 200,350 Q100,300 0,350 Z" fill="#ffff00" opacity="0.6"/>
  <path d="M0,400 Q100,350 200,400 Q300,450 400,400 L400,500 Q300,550 200,500 Q100,450 0,500 Z" fill="#ffff00" opacity="0.3"/>
  
  <!-- Organic petal-like shapes -->
  <path d="M120,80 Q80,60 100,120 Q140,140 160,100 Q140,60 120,80 Z" fill="#ffff00" opacity="0.8"/>
  <path d="M300,200 Q260,180 280,240 Q320,260 340,220 Q320,180 300,200 Z" fill="#000000" opacity="0.2"/>
  <path d="M80,350 Q40,330 60,390 Q100,410 120,370 Q100,330 80,350 Z" fill="#ffff00" opacity="0.7"/>
  <path d="M280,450 Q240,430 260,490 Q300,510 320,470 Q300,430 280,450 Z" fill="#ffffff" opacity="0.9"/>
  
  <!-- Flowing ribbons -->
  <path d="M30,150 Q130,130 230,170 Q330,210 400,190" stroke="#ffff00" stroke-width="8" fill="none" opacity="0.5" stroke-linecap="round"/>
  <path d="M0,300 Q100,280 200,320 Q300,360 370,340" stroke="#000000" stroke-width="4" fill="none" opacity="0.3" stroke-linecap="round"/>
  
  <!-- Soft highlight circles -->
  <circle cx="200" cy="120" r="15" fill="#ffffff" opacity="0.8"/>
  <circle cx="150" cy="280" r="12" fill="#ffffff" opacity="0.9"/>
  <circle cx="250" cy="420" r="18" fill="#ffffff" opacity="0.7"/>
</svg>