<svg xmlns="http://www.w3.org/2000/svg" width="400" height="600" viewBox="0 0 400 600">
  <rect width="400" height="600" fill="#ffffff"/>
  <!-- Ink splashes -->
  <g fill="#000000" opacity="0.8">
    <ellipse cx="150" cy="200" rx="40" ry="60" transform="rotate(30 150 200)"/>
    <ellipse cx="120" cy="180" rx="20" ry="30" transform="rotate(60 120 180)"/>
    <ellipse cx="180" cy="220" rx="15" ry="25" transform="rotate(-20 180 220)"/>
  </g>
  <g fill="#ff0000" opacity="0.6">
    <ellipse cx="280" cy="150" rx="35" ry="50" transform="rotate(-45 280 150)"/>
    <ellipse cx="310" cy="130" rx="18" ry="28" transform="rotate(-10 310 130)"/>
    <ellipse cx="250" cy="170" rx="12" ry="20" transform="rotate(45 250 170)"/>
  </g>
  <g fill="#0000ff" opacity="0.7">
    <ellipse cx="200" cy="400" rx="50" ry="70" transform="rotate(15 200 400)"/>
    <ellipse cx="230" cy="380" rx="25" ry="35" transform="rotate(-30 230 380)"/>
    <ellipse cx="170" cy="420" rx="15" ry="25" transform="rotate(60 170 420)"/>
  </g>
  <!-- Droplets -->
  <g fill="#000000">
    <circle cx="100" cy="100" r="3"/>
    <circle cx="320" cy="80" r="4"/>
    <circle cx="80" cy="350" r="2"/>
    <circle cx="350" cy="450" r="5"/>
  </g>
</svg>