<svg xmlns="http://www.w3.org/2000/svg" width="400" height="600" viewBox="0 0 400 600">
  <rect width="400" height="600" fill="#ffffff"/>
  <g stroke="#000000" stroke-width="4" fill="none">
    <path d="M50,50 L350,50 L350,150 L150,150 L150,250 L300,250 L300,350 L100,350 L100,450 L250,450 L250,550 L350,550"/>
    <path d="M50,100 L200,100 L200,200 L50,200"/>
    <path d="M250,100 L300,100 L300,200 L250,200"/>
    <path d="M50,300 L150,300 L150,400 L50,400"/>
    <path d="M200,300 L350,300 L350,400 L200,400"/>
    <path d="M100,500 L200,500 L200,550 L100,550"/>
  </g>
  <circle cx="75" cy="75" r="5" fill="#ff0000"/>
  <circle cx="325" cy="525" r="5" fill="#00ff00"/>
</svg>