<svg xmlns="http://www.w3.org/2000/svg" width="400" height="600" viewBox="0 0 400 600">
  <rect width="400" height="600" fill="#ffffff"/>
  <!-- Mountain layers -->
  <polygon points="0,400 100,200 200,300 300,150 400,250 400,600 0,600" fill="#0000ff" opacity="0.2"/>
  <polygon points="0,450 80,250 180,350 280,200 380,300 400,350 400,600 0,600" fill="#0000ff" opacity="0.3"/>
  <polygon points="0,500 60,300 160,400 260,250 360,350 400,400 400,600 0,600" fill="#0000ff" opacity="0.4"/>
  <polygon points="0,550 40,350 140,450 240,300 340,400 400,450 400,600 0,600" fill="#0000ff" opacity="0.5"/>
  <!-- Sun -->
  <circle cx="320" cy="120" r="30" fill="#ffff00" opacity="0.8"/>
  <!-- Birds -->
  <g stroke="#000000" stroke-width="2" fill="none">
    <path d="M100,80 Q110,70 120,80"/>
    <path d="M150,90 Q160,80 170,90"/>
    <path d="M200,100 Q210,90 220,100"/>
  </g>
</svg>