<svg xmlns="http://www.w3.org/2000/svg" width="400" height="600" viewBox="0 0 400 600">
  <defs>
    <radialGradient id="redFlow" cx="50%" cy="30%" r="70%">
      <stop offset="0%" style="stop-color:#ffffff;stop-opacity:1" />
      <stop offset="60%" style="stop-color:#ff0000;stop-opacity:0.8" />
      <stop offset="100%" style="stop-color:#000000;stop-opacity:1" />
    </radialGradient>
  </defs>
  <rect width="400" height="600" fill="#ffffff"/>
  
  <!-- Flowing organic shapes -->
  <path d="M0,150 Q50,100 120,130 T280,180 Q350,200 400,160 L400,300 Q320,280 250,310 T100,340 Q30,360 0,320 Z" fill="#ff0000" opacity="0.7"/>
  
  <path d="M0,350 Q80,320 160,360 T320,400 Q380,420 400,380 L400,500 Q340,480 280,520 T120,550 Q40,570 0,530 Z" fill="#ff0000" opacity="0.5"/>
  
  <!-- Soft blob shapes -->
  <ellipse cx="100" cy="100" rx="60" ry="80" fill="#ff0000" opacity="0.6" transform="rotate(25 100 100)"/>
  <ellipse cx="300" cy="200" rx="40" ry="70" fill="#ffffff" opacity="0.9" transform="rotate(-15 300 200)"/>
  <ellipse cx="150" cy="450" rx="70" ry="50" fill="#ff0000" opacity="0.4" transform="rotate(45 150 450)"/>
  
  <!-- Flowing lines -->
  <path d="M50,80 Q150,120 250,90 T380,140" stroke="#000000" stroke-width="2" fill="none" opacity="0.3"/>
  <path d="M20,250 Q120,290 220,260 T350,310" stroke="#ff0000" stroke-width="3" fill="none" opacity="0.6"/>
  <path d="M80,420 Q180,460 280,430 T400,480" stroke="#000000" stroke-width="2" fill="none" opacity="0.4"/>
</svg>