<svg xmlns="http://www.w3.org/2000/svg" width="400" height="600" viewBox="0 0 400 600">
  <rect width="400" height="600" fill="#ffffff"/>
  <path d="M0,100 Q100,50 200,100 T400,100 L400,200 Q300,150 200,200 T0,200 Z" fill="#0000ff"/>
  <path d="M0,250 Q100,200 200,250 T400,250 L400,350 Q300,300 200,350 T0,350 Z" fill="#0000ff"/>
  <path d="M0,400 Q100,350 200,400 T400,400 L400,500 Q300,450 200,500 T0,500 Z" fill="#0000ff"/>
  <circle cx="100" cy="150" r="15" fill="#ffffff"/>
  <circle cx="300" cy="300" r="20" fill="#ffffff"/>
  <circle cx="150" cy="450" r="18" fill="#ffffff"/>
</svg>